<svg width="200" height="200" xmlns="http://www.w3.org/2000/svg">

 <g>
  <title>background</title>
  <rect fill="none" id="canvas_background" height="202" width="202" y="-1" x="-1"/>
 </g>
 <g>
  <title>Layer 1</title>
  <g id="Layer_1_1_"/>
  <g id="Access_control"/>
  <g id="Azure_active_directory"/>
  <g stroke="null" id="Generic_code">
   <g stroke="null" id="svg_1">
    <path stroke="null" id="svg_2" d="m158.102981,-0.4l-130.66415,0c-15.276461,0 -27.838831,12.220432 -27.838831,26.914939l0,146.870096c0,14.769479 12.639915,26.914939 27.838831,26.914939l144.622339,0c15.276461,0 27.838831,-12.220432 27.838831,-26.914939l0,-134.049889l-41.797019,-39.735146zm24.58192,173.785035c0,5.772842 -4.652729,10.27116 -10.623732,10.27116l-144.622339,0c-5.971003,0 -10.623732,-4.498318 -10.623732,-10.27116l0,-146.870096c0,-5.772842 4.652729,-10.27116 10.623732,-10.27116l122.056601,0l0,32.088005l33.18947,0l0,125.053252z" fill="#2A3282"/>
    <path stroke="null" id="svg_3" d="m59.930391,68.874104l0,13.494955c0,7.722113 -3.334456,11.545684 -9.305459,11.545684l0,10.870936c6.668912,0 9.305459,3.823571 9.305459,10.870936l0,14.769479c0,7.722113 2.016183,12.820207 5.273093,16.044002c3.95482,4.498318 10.623732,6.44759 20.549555,6.44759l0,-11.545684c-3.334456,0 -5.971003,-0.674748 -7.987185,-2.549047c-1.318273,-1.949271 -2.636547,-4.498318 -2.636547,-8.321889l0,-12.220432c0.697909,-9.596413 -2.636547,-16.044002 -8.607549,-18.593049l0,0c6.668912,-2.549047 9.305459,-8.321889 9.305459,-17.993274l0,-12.820207c0,-7.047366 3.334456,-10.27116 9.925823,-10.27116l0,-11.545684c-9.925823,0 -16.594735,1.949271 -20.549555,5.772842c-3.256911,2.549047 -5.273093,8.321889 -5.273093,16.044002z" fill="#2A3282"/>
    <path stroke="null" id="svg_4" d="m132.900697,82.294087l0,-14.094731c0,-7.722113 -2.016183,-12.820207 -5.273093,-16.643778c-3.95482,-3.223795 -10.623732,-5.098094 -20.549555,-5.098094l0,11.545684c6.668912,0 9.925823,3.223795 9.925823,10.27116l0,12.220432c0,10.27116 3.334456,16.643778 9.305459,19.267797l0,0c-6.668912,2.549047 -9.305459,8.321889 -9.305459,17.993274l0,12.820207c0,3.823571 -0.697909,6.44759 -2.016183,8.321889c-2.016183,1.949271 -3.95482,2.549047 -7.987185,2.549047l0,11.545684c9.925823,0 16.594735,-1.949271 20.549555,-5.772842c3.334456,-3.223795 5.273093,-8.996637 5.273093,-16.643778l0,-14.094731c0,-7.722113 3.334456,-11.545684 9.305459,-11.545684l0,-10.870936c-5.893457,-0.224916 -9.227913,-4.048487 -9.227913,-11.7706z" fill="#2A3282"/>
   </g>
  </g>
  <g id="symbols"/>
 </g>
</svg>